<svg xmlns="http://www.w3.org/2000/svg" version="1.1" xmlns:xlink="http://www.w3.org/1999/xlink" xmlns:svgjs="http://svgjs.dev/svgjs" width="1000" height="1000" viewBox="0 0 1000 1000"><rect width="1000" height="1000" fill="#6936f5"></rect><g transform="matrix(0.7,0,0,0.7,149.57575757575756,282.1265587044535)"><svg viewBox="0 0 396 247" data-background-color="#6936f5" preserveAspectRatio="xMidYMid meet" height="623" width="1000" xmlns="http://www.w3.org/2000/svg" xmlns:xlink="http://www.w3.org/1999/xlink"><g id="tight-bounds" transform="matrix(1,0,0,1,0.2400000000000091,-0.09999999999999432)"><svg viewBox="0 0 395.52 247.2" height="247.2" width="395.52"><g><svg></svg></g><g><svg viewBox="0 0 395.52 247.2" height="247.2" width="395.52"><g transform="matrix(1,0,0,1,105.01406864516127,47.215199999999996)"><svg viewBox="0 0 185.49186270967743 152.7696" height="152.7696" width="185.49186270967743"><g><svg viewBox="0 0 185.49186270967743 152.7696" height="152.7696" width="185.49186270967743"><g><svg viewBox="0 0 185.49186270967743 152.7696" height="152.7696" width="185.49186270967743"><g><svg viewBox="0 0 185.49186270967743 152.7696" height="152.7696" width="185.49186270967743"><g id="textblocktransform"><svg viewBox="0 0 185.49186270967743 152.7696" height="152.7696" width="185.49186270967743" id="textblock"><g><svg viewBox="0 0 185.49186270967743 152.7696" height="152.7696" width="185.49186270967743"><g transform="matrix(1,0,0,1,0,0)"><svg width="185.49186270967743" viewBox="-0.42000001668930054 -37.349998474121094 45.94999694824219 37.84000015258789" height="152.7696" data-palette-color="#ffffff"><path d="M-0.42-1.25L0.78-4.44Q0.78-4.44 1.34-4.17L1.34-4.17Q4-2.91 6.98-2.91L6.98-2.91Q9.57-2.91 10.64-4.52L10.64-4.52Q11.67-6.08 11.67-9.86L11.67-9.86 11.67-37.35 15.77-37.35 15.77-12.6Q15.77-8.03 15.39-6.15 15.01-4.27 14.44-3.13 13.87-1.98 12.89-1.17L12.89-1.17Q10.89 0.49 6.98 0.49L6.98 0.49Q3.61 0.49 0.66-0.73L0.66-0.73Q-0.05-1.03-0.42-1.25L-0.42-1.25ZM31.08 0L31.08-33.74 21.12-33.74 21.12-37.35 45.53-37.35 45.53-33.74 35.23-33.74 35.23 0 31.08 0Z" opacity="1" transform="matrix(1,0,0,1,0,0)" fill="#ffffff" class="wordmark-text-0" data-fill-palette-color="primary" id="text-0"></path></svg></g></svg></g></svg></g></svg></g></svg></g></svg></g></svg></g><g><path d="M0 123.6c0-68.262 55.338-123.6 123.6-123.6 30.402 0 58.24 10.976 79.768 29.183l-11.147 0c-19.26-14.022-42.974-22.294-68.621-22.295-64.458 0-116.712 52.254-116.712 116.712 0 64.458 52.254 116.712 116.712 116.712 25.647 0 49.361-8.272 68.621-22.295l11.147 0c-21.528 18.206-49.366 29.183-79.768 29.183-68.262 0-123.6-55.338-123.6-123.6z" fill="#ffffff" stroke="transparent" data-fill-palette-color="tertiary"></path></g></svg></g><defs></defs></svg><rect width="395.52" height="247.2" fill="none" stroke="none" visibility="hidden"></rect></g></svg></g></svg>